<?xml version="1.0" encoding="utf-8"?>
<svg version="1.1" id="Layer_1" xmlns="http://www.w3.org/2000/svg"  x="0px" y="0px"
	 viewBox="0 0 240 240" style="enable-background:new 0 0 240 240;" xml:space="preserve">
<style type="text/css">
	.st0{fill:#151718;}
	.st1{fill:#00C483;}
</style>
<path class="st0" d="M196.73,240H43.27C19.47,240,0,220.53,0,196.73V43.27C0,19.47,19.47,0,43.27,0h153.46
	C220.53,0,240,19.47,240,43.27v153.46C240,220.53,220.53,240,196.73,240z"/>
<path class="st1" d="M39.99,184.45c-8.99-4.12-16.68-9.91-23.07-17.36c-0.53-0.62-0.48-1.55,0.11-2.12l15.93-15.23
	c0.62-0.6,1.6-0.55,2.19,0.08c25.91,27.36,82.94,15.32,56.93-13.17c-0.1-0.11-0.22-0.21-0.35-0.29
	c-22.09-14.02-53.72-19.03-52.81-49.21c-0.44-49.45,70.81-54.76,99.28-24.33c0.56,0.6,0.53,1.54-0.05,2.12l-16.21,16.39
	c-0.56,0.56-1.44,0.6-2.06,0.11c-8.79-7.03-20.01-12.26-31.67-12.1c-0.04,0-0.09,0-0.13-0.01c-15.73-1.79-29.2,14.72-15.59,26.53
	c10.47,8.76,34.64,13.64,43.9,24.67c0.02,0.03,0.05,0.05,0.07,0.08c19.77,18.72,8.37,51.3-14.58,63.13
	C85.51,193.18,58.1,193.26,39.99,184.45z"/>
<path class="st1" d="M212.16,190.55h-25.22c-0.59,0-1.1-0.43-1.19-1.02l-3.91-25.44c-0.09-0.59-0.59-1.02-1.19-1.02h-56.76
	c-0.43,0-1.68,0.56-1.89,0.93l-12,14c-0.21,0.37-5,3-11,6l-19,6c-0.94,0-1.48-0.47-1-1.27L163.22,49.5
	c0.22-0.36,0.61-0.58,1.03-0.58h22.98c0.58,0,1.08,0.42,1.18,0.99l24.94,139.23C213.48,189.88,212.91,190.55,212.16,190.55z
	 M167.46,86.21l-29.94,52c-0.46,0.8,0.12,1.8,1.04,1.8h38.3c0.74,0,1.3-0.66,1.19-1.38l-8.03-52.42c-0.01-0.04-0.01-0.07-0.01-0.11
	v0c-0.08-1.25-1.77-1.56-2.29-0.43l-0.2,0.43C167.5,86.15,167.48,86.18,167.46,86.21z"/>
<g>
</g>
<g>
</g>
<g>
</g>
<g>
</g>
<g>
</g>
<g>
</g>
<g>
</g>
<g>
</g>
<g>
</g>
<g>
</g>
<g>
</g>
</svg>
